<svg xmlns="http://www.w3.org/2000/svg" xmlns:xlink="http://www.w3.org/1999/xlink" version="1.1" width="256" height="256" viewBox="0 0 256 256" xml:space="preserve">

<defs>
</defs>
<g style="stroke: none; stroke-width: 0; stroke-dasharray: none; stroke-linecap: butt; stroke-linejoin: miter; stroke-miterlimit: 10; fill: none; fill-rule: nonzero; opacity: 1;" transform="translate(1.4065934065934016 1.4065934065934016) scale(2.81 2.81)" >
	<path d="M 69.996 88.021 c -0.725 0 -1.453 -0.175 -2.128 -0.527 L 45 75.47 L 22.134 87.493 c -1.552 0.814 -3.394 0.68 -4.807 -0.349 c -1.415 -1.027 -2.11 -2.737 -1.815 -4.463 l 4.367 -25.461 L 1.381 39.189 c -1.253 -1.223 -1.695 -3.015 -1.154 -4.679 c 0.541 -1.664 1.952 -2.854 3.683 -3.105 l 25.566 -3.715 L 40.908 4.524 C 41.683 2.955 43.251 1.98 45 1.98 s 3.317 0.974 4.092 2.543 l 11.432 23.166 l 25.565 3.716 c 1.731 0.251 3.143 1.441 3.683 3.106 c 0.541 1.664 0.099 3.457 -1.154 4.678 L 70.12 57.222 l 4.368 25.46 c 0.296 1.726 -0.399 3.436 -1.814 4.464 C 71.875 87.725 70.939 88.021 69.996 88.021 z M 45 73.427 c 0.269 0 0.534 0.065 0.771 0.188 l 23.028 12.107 c 0.869 0.453 1.906 0.38 2.7 -0.196 c 0.795 -0.577 1.186 -1.538 1.02 -2.508 l -4.398 -25.635 c -0.094 -0.54 0.086 -1.091 0.48 -1.473 l 18.623 -18.154 c 0 0 0 0 0 0 c 0.704 -0.686 0.953 -1.693 0.648 -2.627 c -0.304 -0.936 -1.096 -1.603 -2.067 -1.745 l -25.741 -3.741 c -0.542 -0.079 -1.01 -0.418 -1.252 -0.909 L 47.3 5.409 C 46.864 4.528 45.983 3.98 45 3.98 s -1.864 0.547 -2.299 1.429 L 31.191 28.734 c -0.243 0.491 -0.71 0.831 -1.252 0.909 L 4.197 33.384 c -0.972 0.141 -1.765 0.81 -2.068 1.744 s -0.055 1.942 0.648 2.628 l 18.626 18.156 c 0.393 0.384 0.572 0.935 0.477 1.475 l -4.396 25.632 c -0.166 0.97 0.225 1.93 1.019 2.508 c 0.793 0.578 1.829 0.651 2.702 0.195 l 23.022 -12.104 C 44.467 73.493 44.733 73.427 45 73.427 z M 69.995 57.344 L 69.995 57.344 L 69.995 57.344 z M 19.909 57.046 c 0 0.001 0 0.001 0 0.002 V 57.046 z" style="stroke: none; stroke-width: 1; stroke-dasharray: none; stroke-linecap: butt; stroke-linejoin: miter; stroke-miterlimit: 10; fill: rgb(0,0,0); fill-rule: nonzero; opacity: 1;" transform=" matrix(1 0 0 1 0 0) " stroke-linecap="round" />
	<path d="M 36.256 65.104 c -0.19 0 -0.382 -0.054 -0.552 -0.167 c -0.46 -0.306 -0.585 -0.926 -0.28 -1.386 c 2.14 -3.224 5.72 -5.148 9.576 -5.148 c 3.856 0 7.435 1.925 9.575 5.148 c 0.306 0.46 0.18 1.08 -0.28 1.386 c -0.461 0.306 -1.082 0.179 -1.386 -0.28 c -1.769 -2.663 -4.725 -4.254 -7.909 -4.254 c -3.184 0 -6.141 1.591 -7.91 4.254 C 36.898 64.947 36.58 65.104 36.256 65.104 z" style="stroke: none; stroke-width: 1; stroke-dasharray: none; stroke-linecap: butt; stroke-linejoin: miter; stroke-miterlimit: 10; fill: rgb(0,0,0); fill-rule: nonzero; opacity: 1;" transform=" matrix(1 0 0 1 0 0) " stroke-linecap="round" />
	<path d="M 30.5 45.938 c -0.552 0 -1 -0.448 -1 -1 v -3.29 c 0 -0.552 0.448 -1 1 -1 c 0.552 0 1 0.448 1 1 v 3.29 C 31.5 45.491 31.052 45.938 30.5 45.938 z" style="stroke: none; stroke-width: 1; stroke-dasharray: none; stroke-linecap: butt; stroke-linejoin: miter; stroke-miterlimit: 10; fill: rgb(0,0,0); fill-rule: nonzero; opacity: 1;" transform=" matrix(1 0 0 1 0 0) " stroke-linecap="round" />
	<path d="M 59.5 45.938 c -0.553 0 -1 -0.448 -1 -1 v -3.29 c 0 -0.552 0.447 -1 1 -1 c 0.553 0 1 0.448 1 1 v 3.29 C 60.5 45.491 60.053 45.938 59.5 45.938 z" style="stroke: none; stroke-width: 1; stroke-dasharray: none; stroke-linecap: butt; stroke-linejoin: miter; stroke-miterlimit: 10; fill: rgb(0,0,0); fill-rule: nonzero; opacity: 1;" transform=" matrix(1 0 0 1 0 0) " stroke-linecap="round" />
	<path d="M 59.803 60.815 c -2.59 0 -4.697 -2.107 -4.697 -4.698 c 0 -2.971 2.228 -5.539 3.704 -7.238 l 0.45 -0.518 l 0.543 -0.039 c 0.329 0 0.639 0.143 0.851 0.392 l 0.143 0.164 c 1.477 1.703 3.704 4.271 3.704 7.239 C 64.5 58.708 62.392 60.815 59.803 60.815 z M 59.803 50.79 c -1.226 1.443 -2.697 3.388 -2.697 5.327 c 0 1.488 1.21 2.698 2.697 2.698 c 1.487 0 2.697 -1.21 2.697 -2.698 C 62.5 54.179 61.027 52.234 59.803 50.79 z M 60.477 50.009 l -0.015 0.016 C 60.468 50.019 60.472 50.014 60.477 50.009 z" style="stroke: none; stroke-width: 1; stroke-dasharray: none; stroke-linecap: butt; stroke-linejoin: miter; stroke-miterlimit: 10; fill: rgb(0,0,0); fill-rule: nonzero; opacity: 1;" transform=" matrix(1 0 0 1 0 0) " stroke-linecap="round" />
</g>
</svg>